<?xml version="1.0" encoding="utf-8"?>
<!-- Generator: Adobe Illustrator 16.0.0, SVG Export Plug-In . SVG Version: 6.00 Build 0)  -->
<!DOCTYPE svg PUBLIC "-//W3C//DTD SVG 1.1//EN" "http://www.w3.org/Graphics/SVG/1.1/DTD/svg11.dtd">
<svg version="1.1" id="Layer_1" xmlns="http://www.w3.org/2000/svg" xmlns:xlink="http://www.w3.org/1999/xlink" x="0px" y="0px"
	 width="200px" height="200px" viewBox="0 0 200 200" enable-background="new 0 0 200 200" xml:space="preserve">
<g>
	<path fill="none" stroke="#292D6E" stroke-width="10" stroke-linecap="round" stroke-linejoin="round" d="M99.848,99
		c15.511,0,27.98-12.47,27.98-27.981c0-15.511-12.471-27.98-27.98-27.98c-15.511,0-27.981,12.469-27.981,27.98
		C71.867,86.53,84.336,99,99.848,99z"/>
	<path fill="none" stroke="#292D6E" stroke-width="10" stroke-linecap="round" stroke-linejoin="round" d="M147.9,154.961
		c0-21.595-21.592-39.234-48.053-39.234c-26.46,0-48.054,17.641-48.054,39.234"/>
	<path fill="none" stroke="#292D6E" stroke-width="10" stroke-linecap="round" stroke-linejoin="round" d="M38.107,115.727
		c10.341,0,18.553-8.211,18.553-18.552s-8.212-18.552-18.553-18.552c-10.341,0-18.552,8.211-18.552,18.552
		S27.767,115.727,38.107,115.727z"/>
	<path fill="none" stroke="#292D6E" stroke-width="10" stroke-linecap="round" stroke-linejoin="round" d="M57.876,135.497
		c0,0-5.475-8.517-19.465-8.517c-17.64,0-31.935,11.557-31.935,26.155"/>
	<path fill="none" stroke="#292D6E" stroke-width="10" stroke-linecap="round" stroke-linejoin="round" d="M161.588,115.727
		c10.342,0,18.553-8.211,18.553-18.552s-8.518-18.552-18.553-18.552c-10.036,0-18.553,8.211-18.553,18.552
		C142.73,107.516,151.247,115.727,161.588,115.727z"/>
	<path fill="none" stroke="#292D6E" stroke-width="10" stroke-linecap="round" stroke-linejoin="round" d="M193.521,153.137
		c0-14.6-14.295-26.156-31.935-26.156s-19.466,5.475-19.466,5.475"/>
</g>
</svg>
