<?xml version="1.0" encoding="utf-8"?>
<!-- Generator: Adobe Illustrator 16.0.0, SVG Export Plug-In . SVG Version: 6.00 Build 0)  -->
<!DOCTYPE svg PUBLIC "-//W3C//DTD SVG 1.1//EN" "http://www.w3.org/Graphics/SVG/1.1/DTD/svg11.dtd">
<svg version="1.1" id="Layer_1" xmlns="http://www.w3.org/2000/svg" xmlns:xlink="http://www.w3.org/1999/xlink" x="0px" y="0px"
	 width="200px" height="200px" viewBox="0 0 200 200" enable-background="new 0 0 200 200" xml:space="preserve">
<g>
	<path fill="none" stroke="#292D6E" stroke-width="10" stroke-linecap="round" stroke-linejoin="round" d="M-141.087,225.137
		c0,17.793-14.425,32.22-32.218,32.22c-17.795,0-32.221-14.426-32.221-32.22c0-17.795,14.426-32.223,32.221-32.223
		C-155.512,192.914-141.087,207.342-141.087,225.137z"/>
	
		<line fill="none" stroke="#292D6E" stroke-width="5" stroke-linecap="round" stroke-linejoin="round" x1="-190.388" y1="217.25" x2="-190.388" y2="234.205"/>
	<path fill="none" stroke="#292D6E" stroke-width="5" stroke-linecap="round" stroke-linejoin="round" d="M-177.48,234.205
		L-177.48,234.205c-2.879,0-5.207-2.328-5.207-5.203v-6.547c0-2.873,2.328-5.203,5.207-5.203l0,0c2.873,0,5.199,2.33,5.199,5.203
		v6.547C-172.281,231.877-174.607,234.205-177.48,234.205z"/>
	<path fill="none" stroke="#292D6E" stroke-width="5" stroke-linecap="round" stroke-linejoin="round" d="M-159.582,234.205
		L-159.582,234.205c-2.875,0-5.205-2.328-5.205-5.203v-6.547c0-2.873,2.33-5.203,5.205-5.203l0,0c2.873,0,5.201,2.33,5.201,5.203
		v6.547C-154.382,231.877-156.709,234.205-159.582,234.205z"/>
	<path fill="none" stroke="#292D6E" stroke-width="10" stroke-linecap="round" stroke-linejoin="round" d="M-238.588,166.181
		c21.655,0,39.063-17.408,39.063-39.063c0-21.654-17.405-39.063-39.063-39.063c-21.654,0-39.063,17.408-39.063,39.063
		C-277.651,148.772-260.242,166.181-238.588,166.181z"/>
	<path fill="none" stroke="#292D6E" stroke-width="10" stroke-linecap="round" stroke-linejoin="round" d="M-200.447,199.295
		c-36.7-20.809-105.229-6.02-105.228,45.013"/>
</g>
<g>
	<path fill="none" stroke="#292D6E" stroke-width="5" stroke-linecap="round" stroke-linejoin="round" d="M149.099,141.487
		c2.761,0.622,4.785,2.665,4.785,5.091"/>
	<path fill="none" stroke="#292D6E" stroke-width="5" stroke-linecap="round" stroke-linejoin="round" d="M140.828,157.135
		c0,2.915,2.925,5.278,6.527,5.278c3.607,0,6.529-2.363,6.529-5.278c0-2.148-1.592-3.998-3.867-4.823"/>
	
		<line fill="none" stroke="#292D6E" stroke-width="5" stroke-linecap="round" stroke-linejoin="round" x1="147.354" y1="165.795" x2="147.354" y2="162.413"/>
</g>
<path fill="none" stroke="#292D6E" stroke-width="10" stroke-linecap="round" stroke-linejoin="round" d="M147.099,128.284
	c1.777,0.036,5.812,0.264,7.608,0.708c13.082,3.218,21.074,16.434,17.857,29.515c-3.224,13.079-16.437,21.074-29.52,17.852
	c-13.08-3.218-21.072-16.431-17.854-29.516"/>
<path fill="none" stroke="#292D6E" stroke-width="10" stroke-linecap="round" stroke-linejoin="round" d="M165.938,131.265
	c0,0,7.328-17.08,8.521-22.642c1.191-5.562-24.626-34.555-29.128-38.528c-4.499-3.969-85.26-25.021-85.26-25.021"/>
<path fill="none" stroke="#292D6E" stroke-width="10" stroke-linecap="round" stroke-linejoin="round" d="M155.239,122.016
	c0,0,5.447-10.784-7.923-21.024c-13.37-10.243-22.861-3.661-30.03,0c-7.169,3.657-1.173,12.272,0,13.527
	c1.17,1.254,24.605,9.468,25.002,18.467c0.397,8.999-0.794,11.639-1.987,11.31c-0.823-0.225-27.967-9.015-44.557-14.388
	c-8.112-2.629-14.97-8.117-19.31-15.455c-6.259-10.576-14.874-24.919-16.362-26.285c-2.381-2.184-14.298-4.06-14.298-4.06"/>
<polyline fill="none" stroke="#292D6E" stroke-width="10" stroke-linecap="round" stroke-linejoin="round" points="45.774,24.817 
	64.839,30.775 42.597,92.203 26.709,88.168 "/>
</svg>
