<?xml version="1.0" encoding="utf-8"?>
<!-- Generator: Adobe Illustrator 16.0.0, SVG Export Plug-In . SVG Version: 6.00 Build 0)  -->
<!DOCTYPE svg PUBLIC "-//W3C//DTD SVG 1.1//EN" "http://www.w3.org/Graphics/SVG/1.1/DTD/svg11.dtd">
<svg version="1.1" id="Layer_1" xmlns="http://www.w3.org/2000/svg" xmlns:xlink="http://www.w3.org/1999/xlink" x="0px" y="0px"
	 width="200px" height="200px" viewBox="0 0 200 200" enable-background="new 0 0 200 200" xml:space="preserve">
<path fill="none" stroke="#292D6E" stroke-width="10" stroke-linecap="round" stroke-linejoin="round" d="M184.294,153.535
	c0,17.793-14.425,32.22-32.218,32.22c-17.795,0-32.221-14.426-32.221-32.22c0-17.795,14.426-32.223,32.221-32.223
	C169.869,121.313,184.294,135.74,184.294,153.535z"/>
<line fill="none" stroke="#292D6E" stroke-width="5" stroke-linecap="round" stroke-linejoin="round" x1="134.993" y1="145.649" x2="134.993" y2="162.604"/>
<path fill="none" stroke="#292D6E" stroke-width="5" stroke-linecap="round" stroke-linejoin="round" d="M147.9,162.604
	L147.9,162.604c-2.879,0-5.206-2.328-5.206-5.204v-6.546c0-2.874,2.327-5.204,5.206-5.204l0,0c2.873,0,5.199,2.33,5.199,5.204v6.546
	C153.1,160.275,150.773,162.604,147.9,162.604z"/>
<path fill="none" stroke="#292D6E" stroke-width="5" stroke-linecap="round" stroke-linejoin="round" d="M165.799,162.604
	L165.799,162.604c-2.875,0-5.205-2.328-5.205-5.204v-6.546c0-2.874,2.33-5.204,5.205-5.204l0,0c2.873,0,5.201,2.33,5.201,5.204
	v6.546C170.999,160.275,168.672,162.604,165.799,162.604z"/>
<path fill="none" stroke="#292D6E" stroke-width="11" stroke-linecap="round" stroke-linejoin="round" d="M86.793,94.579
	c21.655,0,39.063-17.408,39.063-39.063c0-21.655-17.406-39.063-39.063-39.063c-21.654,0-39.063,17.408-39.063,39.063
	C47.73,77.171,65.139,94.579,86.793,94.579z"/>
<path fill="none" stroke="#292D6E" stroke-width="11" stroke-linecap="round" stroke-linejoin="round" d="M124.934,127.693
	c-36.7-20.808-105.229-6.019-105.228,45.013"/>
</svg>
