<svg width="588" height="98" viewBox="0 0 588 98" fill="none" xmlns="http://www.w3.org/2000/svg">
<path d="M313.222 23.2734V73.6734H321.574V30.9774H322.438L335.974 73.6734H351.094V23.2734H342.742V65.9694H341.878L328.27 23.2734H313.222Z" fill="black"/>
<path d="M358.096 55.6014C358.096 66.4734 365.728 74.6814 376.528 74.6814C385.528 74.6814 389.848 69.7854 392.44 65.7534L385.888 62.0094C384.304 65.1054 381.496 67.8414 376.384 67.8414C370.624 67.8414 366.664 64.0254 366.304 58.4814H393.16V55.0254C393.16 44.5134 386.248 37.0974 375.88 37.0974C365.512 37.0974 358.096 45.0174 358.096 55.6014ZM366.304 52.5774C366.952 47.2494 370.192 43.9374 375.808 43.9374C381.28 43.9374 384.664 47.2494 385.024 52.5774H366.304Z" fill="black"/>
<path d="M395.463 38.1774V45.0174H404.895V67.1934C404.895 71.0094 407.631 73.6734 411.375 73.6734H420.879V66.8334H414.759C413.463 66.8334 412.815 66.1854 412.815 64.7454V45.0174H422.895V38.1774H412.815V26.5134H404.895V38.1774H395.463Z" fill="black"/>
<path d="M426.349 38.1774L433.837 73.6734H445.357L451.405 45.5934H452.341L458.389 73.6734H469.981L477.397 38.1774H469.333L464.437 66.2574H463.501L457.525 38.1774H446.293L440.245 66.2574H439.309L434.413 38.1774H426.349Z" fill="black"/>
<path d="M480.791 55.8894C480.791 66.9774 488.783 74.6814 499.223 74.6814C509.663 74.6814 517.655 66.9774 517.655 55.8894C517.655 44.8014 509.663 37.1694 499.223 37.1694C488.783 37.1694 480.791 44.8014 480.791 55.8894ZM488.711 55.8894C488.711 48.7614 492.959 44.2974 499.223 44.2974C505.487 44.2974 509.735 48.7614 509.735 55.8894C509.735 63.0174 505.487 67.5534 499.223 67.5534C492.959 67.5534 488.711 63.0174 488.711 55.8894Z" fill="black"/>
<path d="M532.211 38.1774H524.507V73.6734H532.427V53.2974C532.427 48.1134 535.451 45.4494 540.275 45.4494H546.035V38.0334H542.291C537.467 38.0334 534.515 39.7614 533.219 43.6494H532.211V38.1774Z" fill="black"/>
<path d="M587.651 38.1774H576.347L560.291 51.7134H559.427V23.2734H551.507V73.6734H559.427V61.7934L565.835 56.4654L577.931 73.6734H587.219L571.523 51.7134L587.651 38.1774Z" fill="black"/>
<path d="M11.7676 2.20605H84.057C89.5807 2.20605 93.9037 6.61605 93.9037 12.2511V85.996C93.9037 91.631 89.5807 96.0411 84.057 96.0411H11.7676C6.24385 96.0411 1.9209 91.631 1.9209 85.996V12.2511C1.9209 6.61605 6.48401 2.20605 11.7676 2.20605Z" fill="#152172"/>
<path d="M110.476 2.20605H182.765C188.289 2.20605 192.612 6.61605 192.612 12.2511V85.996C192.612 91.631 188.289 96.0411 182.765 96.0411H110.476C104.952 96.0411 100.629 91.631 100.629 85.996V12.2511C100.629 6.61605 104.952 2.20605 110.476 2.20605Z" fill="#152172"/>
<path d="M208.942 2.20605H281.232C286.756 2.20605 291.078 6.61605 291.078 12.2511V85.996C291.078 91.631 286.756 96.0411 281.232 96.0411H208.942C203.419 96.0411 199.096 91.631 199.096 85.996V12.2511C199.096 6.61605 203.419 2.20605 208.942 2.20605Z" fill="#152172"/>
<path d="M154.426 25.4804L169.316 74.7254H161.631C160.67 74.7254 159.949 74.2354 159.709 73.2554L156.587 62.9654H136.654L133.531 73.2554C133.291 74.2354 132.331 74.7254 131.61 74.7254H123.925L139.055 25.4804C139.535 24.2554 140.736 23.2754 141.937 23.2754H151.544C152.744 23.5204 153.945 24.2554 154.426 25.4804ZM154.426 55.1254L147.701 32.5854C147.461 31.6054 146.02 31.6054 145.78 32.5854L139.055 55.1254H154.426Z" fill="white"/>
<path d="M231.758 23.5195C232.479 23.5195 233.199 24.0095 233.439 24.4995L244.247 42.1395C244.727 42.8745 245.688 42.8745 245.928 42.1395L256.975 24.4995C257.456 24.0095 257.936 23.5195 258.656 23.5195H267.543L252.652 47.7745C252.172 48.5095 252.172 49.2445 252.652 49.9795L267.783 74.9695H258.897C258.176 74.9695 257.456 74.4795 257.215 73.9895L246.168 55.8595C245.688 55.1245 244.727 55.1245 244.487 55.8595L233.439 73.9895C232.959 74.4795 232.238 74.9695 231.758 74.9695H222.872L238.002 49.9795C238.483 49.2445 238.483 48.5095 238.002 47.7745L223.112 23.5195H231.758V23.5195Z" fill="white"/>
<path d="M46.3514 74.7254C57.1588 74.7254 63.403 69.0904 63.403 58.5554V23.2754H54.517V57.5754C54.517 57.8204 54.517 58.0654 54.517 58.3104V62.2304C54.517 64.4354 52.8358 66.1504 50.6743 66.1504H46.5915C46.3514 66.1504 46.3514 66.1504 46.1112 66.1504C45.871 66.1504 45.871 66.1504 45.6309 66.1504H41.7883C39.6268 66.1504 37.9456 64.4354 37.9456 62.2304V58.3104C37.9456 58.0654 37.9456 57.8204 37.9456 57.5754H29.0596C29.7801 68.1104 35.3038 74.7254 46.3514 74.7254Z" fill="white"/>
</svg>
