<?xml version="1.0" encoding="utf-8"?>
<!-- Generator: Adobe Illustrator 26.0.2, SVG Export Plug-In . SVG Version: 6.00 Build 0)  -->
<svg version="1.1" id="Layer_1" xmlns="http://www.w3.org/2000/svg" xmlns:xlink="http://www.w3.org/1999/xlink" x="0px" y="0px"
	 viewBox="0 0 609.2 100" style="enable-background:new 0 0 609.2 100;" xml:space="preserve">
<style type="text/css">
	.st0{fill:#FFFFFF;}
	.st1{fill:#152172;}
	.st2{display:none;}
	.st3{display:inline;fill:#152172;}
</style>
<path class="st0" d="M10.3,4.4h68.5c5.2,0,9.3,4.2,9.3,9.5v69.9c0,5.3-4.1,9.5-9.3,9.5H10.3c-5.2,0-9.3-4.2-9.3-9.5V13.9
	C1,8.6,5.3,4.4,10.3,4.4z"/>
<path class="st0" d="M103.9,4.4h68.5c5.2,0,9.3,4.2,9.3,9.5v69.9c0,5.3-4.1,9.5-9.3,9.5h-68.5c-5.2,0-9.3-4.2-9.3-9.5V13.9
	C94.6,8.6,98.7,4.4,103.9,4.4z"/>
<path class="st0" d="M197.2,4.4h68.5c5.2,0,9.3,4.2,9.3,9.5v69.9c0,5.3-4.1,9.5-9.3,9.5h-68.5c-5.2,0-9.3-4.2-9.3-9.5V13.9
	C187.9,8.6,192,4.4,197.2,4.4z"/>
<path class="st1" d="M145.6,26.5l14.1,46.7h-7.3c-0.9,0-1.6-0.5-1.8-1.4l-3-9.8h-18.9l-3,9.8c-0.2,0.9-1.1,1.4-1.8,1.4h-7.3
	L131,26.5c0.5-1.2,1.6-2.1,2.7-2.1h9.1C144,24.6,145.1,25.3,145.6,26.5z M145.6,54.6l-6.4-21.4c-0.2-0.9-1.6-0.9-1.8,0L131,54.6
	H145.6z"/>
<path class="st1" d="M218.9,24.6c0.7,0,1.4,0.5,1.6,0.9l10.2,16.7c0.5,0.7,1.4,0.7,1.6,0l10.5-16.7c0.5-0.5,0.9-0.9,1.6-0.9h8.4
	l-14.1,23c-0.5,0.7-0.5,1.4,0,2.1L253,73.4h-8.4c-0.7,0-1.4-0.5-1.6-0.9l-10.5-17.2c-0.5-0.7-1.4-0.7-1.6,0l-10.5,17.2
	c-0.5,0.5-1.1,0.9-1.6,0.9h-8.4l14.3-23.7c0.5-0.7,0.5-1.4,0-2.1l-14.1-23C210.6,24.6,218.9,24.6,218.9,24.6z"/>
<path class="st1" d="M43.1,73.2c10.2,0,16.2-5.3,16.2-15.3V24.4h-8.4v32.5c0,0.2,0,0.5,0,0.7v3.7c0,2.1-1.6,3.7-3.6,3.7h-3.9
	c-0.2,0-0.2,0-0.5,0c-0.2,0-0.2,0-0.5,0h-3.6c-2,0-3.6-1.6-3.6-3.7v-3.7c0-0.2,0-0.5,0-0.7h-8.4C27.4,66.9,32.6,73.2,43.1,73.2z"/>
<g class="st2">
	<path class="st3" d="M288.1,75.3V25.4h17.4l8.6,43.4h1.3l8.6-43.4h17.4v49.8h-9.1V32.3H331l-8.5,42.9H307l-8.5-42.9h-1.3v42.9h-9.1
		V75.3z"/>
	<path class="st3" d="M368,76.3c-3.5,0-6.7-0.7-9.5-2.1s-5-3.5-6.6-6.2s-2.4-6-2.4-9.8v-1.1c0-3.8,0.8-7,2.4-9.8
		c1.6-2.7,3.8-4.8,6.6-6.2c2.8-1.4,6-2.1,9.5-2.1s6.7,0.7,9.5,2.1c2.8,1.4,5,3.5,6.6,6.2s2.4,6,2.4,9.8v1.1c0,3.8-0.8,7-2.4,9.8
		c-1.6,2.7-3.8,4.8-6.6,6.2C374.7,75.6,371.5,76.3,368,76.3z M368,68.3c2.8,0,5-0.9,6.8-2.7c1.8-1.8,2.7-4.3,2.7-7.7v-0.7
		c0-3.3-0.9-5.9-2.7-7.7c-1.8-1.8-4.1-2.7-6.9-2.7s-5,0.9-6.8,2.7s-2.7,4.3-2.7,7.7V58c0,3.3,0.9,5.9,2.7,7.7
		C363,67.4,365.2,68.3,368,68.3z"/>
	<path class="st3" d="M394.8,75.3V40h8.8v4.6h1.3c0.6-1.2,1.6-2.4,3.2-3.5s3.9-1.7,7.1-1.7c2.8,0,5.2,0.6,7.2,1.9
		c2.1,1.3,3.7,3,4.8,5.2s1.7,4.8,1.7,7.7v21.1h-9V54.9c0-2.7-0.7-4.7-2-6s-3.2-2-5.6-2c-2.8,0-4.9,0.9-6.4,2.7s-2.3,4.4-2.3,7.7
		v17.9L394.8,75.3L394.8,75.3z"/>
	<path class="st3" d="M454.7,76.3c-3.5,0-6.6-0.7-9.3-2.2c-2.7-1.5-4.8-3.6-6.3-6.3c-1.5-2.7-2.2-5.9-2.2-9.6v-0.9
		c0-3.7,0.7-6.9,2.2-9.6c1.5-2.7,3.5-4.8,6.2-6.3s5.7-2.2,9.3-2.2c3.5,0,6.5,0.8,9,2.3c2.6,1.5,4.6,3.7,6,6.4s2.1,5.9,2.1,9.5v3.1
		H446c0.1,2.4,1,4.4,2.7,5.9s3.8,2.3,6.3,2.3s4.4-0.5,5.6-1.6s2.1-2.3,2.7-3.6l7.3,3.8c-0.7,1.2-1.6,2.6-2.9,4s-2.9,2.7-5,3.7
		C460.6,75.8,457.9,76.3,454.7,76.3z M446.1,53.6h16.5c-0.2-2-1-3.7-2.5-4.9c-1.4-1.2-3.3-1.9-5.7-1.9c-2.4,0-4.3,0.6-5.8,1.9
		C447.3,49.9,446.4,51.5,446.1,53.6z"/>
	<path class="st3" d="M483.6,89.5v-7.8h19.2c1.3,0,2-0.7,2-2.1v-8.9h-1.3c-0.4,0.8-1,1.6-1.8,2.4s-1.9,1.5-3.3,2s-3.1,0.8-5.3,0.8
		c-2.8,0-5.2-0.6-7.2-1.9c-2.1-1.3-3.7-3-4.8-5.2c-1.1-2.2-1.7-4.8-1.7-7.7V40h9v20.4c0,2.7,0.7,4.7,2,6s3.2,2,5.6,2
		c2.8,0,4.9-0.9,6.4-2.7c1.5-1.8,2.3-4.4,2.3-7.7V40h9v41.6c0,2.4-0.7,4.4-2.1,5.8s-3.3,2.2-5.7,2.2L483.6,89.5L483.6,89.5z"/>
</g>
<g>
	<path class="st0" d="M307.5,76.9c-6.2,0-11.1-1.7-14.7-5.2c-3.6-3.4-5.4-8.4-5.4-14.8V45c0-6.4,1.8-11.3,5.4-14.8
		c3.6-3.4,8.5-5.2,14.7-5.2c6.1,0,10.9,1.7,14.2,5c3.3,3.3,5,7.9,5,13.8v0.4h-9.3v-0.7c0-2.9-0.8-5.4-2.5-7.3
		c-1.6-1.9-4.1-2.8-7.5-2.8c-3.3,0-5.9,1-7.8,3.1c-1.9,2-2.8,4.8-2.8,8.3v12.3c0,3.5,0.9,6.2,2.8,8.3c1.9,2.1,4.5,3.1,7.8,3.1
		c3.4,0,5.9-1,7.5-2.9c1.6-1.9,2.5-4.3,2.5-7.2v-1.3h9.3v1c0,5.8-1.7,10.4-5,13.8C318.3,75.2,313.6,76.9,307.5,76.9z"/>
	<path class="st0" d="M351.5,76.9c-3.5,0-6.7-0.7-9.5-2.1c-2.8-1.4-5-3.5-6.6-6.2c-1.6-2.7-2.4-6-2.4-9.8v-1.1
		c0-3.8,0.8-7.1,2.4-9.8c1.6-2.7,3.8-4.8,6.6-6.2c2.8-1.4,6-2.1,9.5-2.1s6.7,0.7,9.5,2.1c2.8,1.4,5,3.5,6.6,6.2
		c1.6,2.7,2.4,6,2.4,9.8v1.1c0,3.8-0.8,7.1-2.4,9.8c-1.6,2.7-3.8,4.8-6.6,6.2C358.1,76.2,355,76.9,351.5,76.9z M351.5,68.9
		c2.8,0,5-0.9,6.8-2.7c1.8-1.8,2.7-4.3,2.7-7.7v-0.7c0-3.3-0.9-5.9-2.7-7.7c-1.8-1.8-4.1-2.7-6.9-2.7c-2.8,0-5,0.9-6.8,2.7
		c-1.8,1.8-2.7,4.3-2.7,7.7v0.7c0,3.3,0.9,5.9,2.7,7.7C346.4,68,348.7,68.9,351.5,68.9z"/>
	<path class="st0" d="M378.3,75.9V40.6h8.8v4h1.3c0.5-1.4,1.4-2.5,2.6-3.1c1.2-0.7,2.6-1,4.2-1h4.3v8h-4.4c-2.3,0-4.2,0.6-5.6,1.8
		c-1.5,1.2-2.2,3.1-2.2,5.6v20.1H378.3z"/>
	<path class="st0" d="M406.5,90.2V40.6h8.8v4.3h1.3c0.8-1.4,2.1-2.6,3.8-3.7c1.7-1.1,4.2-1.6,7.3-1.6c2.8,0,5.5,0.7,7.9,2.1
		c2.4,1.4,4.4,3.5,5.8,6.2c1.5,2.7,2.2,6,2.2,9.8v1.1c0,3.8-0.7,7.1-2.2,9.8c-1.5,2.7-3.4,4.8-5.8,6.2s-5.1,2.1-7.9,2.1
		c-2.1,0-3.9-0.2-5.4-0.7c-1.4-0.5-2.6-1.1-3.5-1.9c-0.9-0.8-1.6-1.6-2.1-2.4h-1.3v18.3H406.5z M425,69.1c2.8,0,5.1-0.9,6.9-2.7
		c1.8-1.8,2.7-4.4,2.7-7.8v-0.7c0-3.4-0.9-6-2.8-7.8c-1.9-1.8-4.2-2.7-6.9-2.7c-2.8,0-5.1,0.9-6.9,2.7c-1.9,1.8-2.8,4.4-2.8,7.8v0.7
		c0,3.4,0.9,6,2.8,7.8C419.9,68.2,422.2,69.1,425,69.1z"/>
	<path class="st0" d="M468.3,75.9v-8.3h6.6V34.3h-6.6V26h20.5c6.7,0,11.8,1.7,15.3,5.1c3.5,3.4,5.2,8.4,5.2,15.1v9.4
		c0,6.7-1.7,11.7-5.2,15.1c-3.5,3.4-8.6,5.1-15.3,5.1H468.3z M484.3,67.4h4.7c3.8,0,6.6-1,8.3-3c1.8-2,2.6-4.8,2.6-8.4V46
		c0-3.7-0.9-6.5-2.6-8.4c-1.8-2-4.5-3-8.3-3h-4.7V67.4z"/>
	<path class="st0" d="M513.3,75.9L526.4,26h16.4l13.1,49.9h-9.7l-2.7-11h-17.8l-2.7,11H513.3z M527.9,56.2h13.4L535.3,32H534
		L527.9,56.2z"/>
	<path class="st0" d="M580.9,76.9c-6.3,0-11.3-1.7-15-5.2s-5.6-8.4-5.6-14.8V45c0-6.4,1.9-11.3,5.6-14.8c3.7-3.4,8.7-5.2,15-5.2
		c6.3,0,11.3,1.7,15,5.2c3.7,3.4,5.6,8.4,5.6,14.8v12c0,6.4-1.9,11.3-5.6,14.8C592.1,75.2,587.1,76.9,580.9,76.9z M580.9,68.5
		c3.5,0,6.2-1,8.2-3.1c1.9-2,2.9-4.8,2.9-8.2V44.7c0-3.4-1-6.1-2.9-8.2c-1.9-2-4.7-3.1-8.2-3.1c-3.5,0-6.2,1-8.2,3.1
		c-2,2-3,4.8-3,8.2v12.5c0,3.4,1,6.2,3,8.2C574.7,67.5,577.4,68.5,580.9,68.5z"/>
</g>
</svg>
